<svg width="16" height="17" viewBox="0 0 16 17" fill="none" xmlns="http://www.w3.org/2000/svg">
<path d="M14.4202 11.6942H5.11555L5.58274 10.7427L13.3452 10.7286C13.6077 10.7286 13.8327 10.5411 13.8796 10.2817L14.9546 4.26455C14.9827 4.10674 14.9406 3.94424 14.8374 3.8208C14.7865 3.76005 14.7229 3.71112 14.6511 3.67739C14.5793 3.64366 14.5011 3.62595 14.4218 3.62549L4.5468 3.59268L4.46243 3.1958C4.4093 2.94268 4.18118 2.7583 3.9218 2.7583H1.50774C1.36146 2.7583 1.22116 2.81641 1.11773 2.91985C1.01429 3.02329 0.956177 3.16358 0.956177 3.30986C0.956177 3.45615 1.01429 3.59644 1.11773 3.69988C1.22116 3.80331 1.36146 3.86143 1.50774 3.86143H3.47493L3.84368 5.61455L4.75149 10.0099L3.58274 11.9177C3.52204 11.9996 3.48549 12.0969 3.4772 12.1985C3.46892 12.3001 3.48924 12.402 3.53586 12.4927C3.62961 12.6786 3.81868 12.7958 4.02805 12.7958H5.0093C4.80011 13.0736 4.68712 13.4121 4.68743 13.7599C4.68743 14.6442 5.40618 15.363 6.29055 15.363C7.17493 15.363 7.89368 14.6442 7.89368 13.7599C7.89368 13.4114 7.77805 13.0724 7.5718 12.7958H10.089C9.8798 13.0736 9.76681 13.4121 9.76711 13.7599C9.76711 14.6442 10.4859 15.363 11.3702 15.363C12.2546 15.363 12.9734 14.6442 12.9734 13.7599C12.9734 13.4114 12.8577 13.0724 12.6515 12.7958H14.4218C14.7249 12.7958 14.9734 12.5489 14.9734 12.2442C14.9725 12.0981 14.9138 11.9583 14.8102 11.8552C14.7065 11.7522 14.5664 11.6943 14.4202 11.6942V11.6942ZM4.77649 4.68018L13.7734 4.70986L12.8921 9.64424L5.82493 9.65674L4.77649 4.68018ZM6.29055 14.2536C6.01868 14.2536 5.7968 14.0317 5.7968 13.7599C5.7968 13.488 6.01868 13.2661 6.29055 13.2661C6.56243 13.2661 6.7843 13.488 6.7843 13.7599C6.7843 13.8908 6.73228 14.0164 6.63969 14.109C6.54709 14.2016 6.4215 14.2536 6.29055 14.2536V14.2536ZM11.3702 14.2536C11.0984 14.2536 10.8765 14.0317 10.8765 13.7599C10.8765 13.488 11.0984 13.2661 11.3702 13.2661C11.6421 13.2661 11.864 13.488 11.864 13.7599C11.864 13.8908 11.812 14.0164 11.7194 14.109C11.6268 14.2016 11.5012 14.2536 11.3702 14.2536V14.2536Z" fill="white"/>
</svg>
